<?xml version="1.0" standalone="no"?>
<!DOCTYPE svg PUBLIC "-//W3C//DTD SVG 20010904//EN"
 "http://www.w3.org/TR/2001/REC-SVG-20010904/DTD/svg10.dtd">
<svg version="1.0" xmlns="http://www.w3.org/2000/svg"
 width="460.000000pt" height="419.000000pt" viewBox="0 0 460.000000 419.000000"
 preserveAspectRatio="xMidYMid meet">

<g transform="translate(0.000000,419.000000) scale(0.100000,-0.100000)"
fill="#000000" stroke="none">
<path d="M2394 3768 c-11 -17 -18 -188 -10 -233 7 -35 29 -47 39 -21 11 28 18
202 9 230 -9 33 -26 44 -38 24z"/>
<path d="M1867 3694 c-13 -13 -7 -53 18 -121 45 -118 105 -193 105 -129 0 68
-100 273 -123 250z"/>
<path d="M2912 3665 c-27 -34 -71 -147 -79 -201 -5 -37 -3 -44 11 -44 23 0 95
154 103 220 7 57 -4 64 -35 25z"/>
<path d="M1394 3395 c-9 -22 48 -104 115 -169 62 -58 78 -66 87 -42 9 24 -22
71 -99 150 -75 77 -93 88 -103 61z"/>
<path d="M3337 3350 c-57 -52 -117 -133 -117 -157 0 -30 39 -9 102 57 70 73
103 123 93 140 -11 17 -22 11 -78 -40z"/>
<path d="M2231 3284 c-217 -40 -437 -168 -569 -328 -104 -126 -145 -205 -194
-371 -25 -84 -31 -123 -35 -246 -5 -126 -3 -157 16 -230 29 -118 86 -226 192
-370 133 -179 241 -346 300 -465 l52 -104 -25 -23 c-36 -33 -42 -61 -24 -99
20 -38 20 -38 1 -38 -27 0 -65 -47 -65 -80 0 -38 39 -80 75 -80 25 0 25 -1 11
-22 -35 -49 -6 -108 59 -123 17 -4 46 -20 65 -35 183 -143 485 -144 621 -3 23
23 42 33 64 33 65 0 107 59 80 113 -19 38 -19 37 9 37 41 0 76 36 76 79 0 41
-32 81 -64 81 -14 0 -16 5 -11 18 5 9 10 32 13 50 5 35 -16 68 -50 81 -32 12
117 260 331 551 188 257 256 465 231 705 -37 357 -305 696 -652 825 -146 54
-356 72 -507 44z m274 -185 c236 -29 438 -156 568 -360 108 -169 142 -379 97
-597 -35 -171 -91 -289 -236 -492 -116 -163 -141 -220 -154 -348 -6 -55 -10
-104 -9 -109 4 -24 -4 -33 -31 -33 l-30 0 0 78 c0 89 29 221 64 290 13 26 65
103 116 172 104 142 168 264 206 395 22 75 27 111 28 220 1 111 -3 141 -22
205 -66 208 -189 358 -367 446 -109 54 -197 74 -331 74 -282 0 -526 -151 -640
-397 -47 -100 -65 -173 -71 -288 -11 -217 62 -419 242 -664 42 -58 91 -137
110 -176 38 -81 68 -219 63 -297 -3 -52 -4 -53 -35 -56 l-33 -3 0 68 c0 85
-22 189 -54 259 -14 30 -58 101 -99 157 -136 189 -195 305 -237 462 -77 288 6
588 218 787 117 110 256 179 411 203 110 17 119 17 226 4z m-10 -79 c112 -16
110 -15 60 -63 -54 -53 -68 -105 -38 -145 38 -51 123 -35 164 31 15 24 19 44
16 79 l-4 48 61 -33 c53 -28 226 -178 226 -196 0 -4 -29 -5 -64 -3 -53 4 -71
0 -104 -18 -72 -40 -79 -88 -19 -118 39 -19 94 1 157 56 28 24 52 43 54 41 26
-29 96 -219 96 -259 0 -16 -4 -17 -37 -8 -71 19 -173 -19 -173 -65 0 -46 90
-69 166 -43 26 9 50 16 52 16 3 0 2 -35 -1 -77 -13 -180 -90 -363 -232 -553
-136 -182 -170 -266 -182 -447 l-6 -103 -94 0 c-51 0 -93 3 -93 6 0 4 -8 52
-17 108 -26 149 -25 485 1 579 l19 69 57 -7 c75 -9 132 9 170 52 81 92 -27
190 -131 120 -30 -20 -91 -97 -101 -127 -2 -7 -22 -5 -58 6 -39 12 -75 15
-125 11 -70 -6 -70 -6 -90 25 -11 17 -37 45 -58 61 -30 25 -47 31 -88 31 -44
1 -54 -3 -75 -27 -57 -67 2 -168 98 -167 29 1 64 11 121 35 13 6 20 0 32 -28
52 -126 63 -380 29 -689 l-7 -58 -72 0 -72 0 -6 98 c-11 172 -62 290 -207 487
-118 159 -210 395 -210 536 l0 60 32 -17 c17 -9 56 -18 87 -21 47 -4 60 -2 84
17 43 34 34 71 -20 88 -35 11 -50 11 -95 -1 -29 -8 -61 -18 -72 -22 -17 -8
-18 -5 -11 40 4 27 15 77 26 111 l20 63 46 -24 c92 -50 225 -26 210 37 -12 47
-85 60 -185 34 -29 -7 -52 -10 -52 -6 0 31 147 220 171 220 4 0 11 -10 14 -22
11 -36 55 -88 82 -99 32 -12 63 5 63 34 0 26 -34 66 -85 97 l-36 22 34 24 c89
60 237 104 377 112 14 1 57 -3 95 -8z m178 -72 c16 -33 16 -40 4 -71 -27 -63
-110 -100 -145 -65 -35 35 2 117 73 159 38 24 46 21 68 -23z m-631 -111 c48
-37 66 -87 30 -87 -23 0 -71 45 -83 78 -20 52 -7 55 53 9z m928 -126 c0 -19
-90 -90 -123 -96 -41 -8 -77 8 -77 34 0 18 34 54 60 64 25 9 140 8 140 -2z
m-976 -93 c19 -31 -16 -53 -82 -52 -56 1 -122 25 -122 44 0 13 78 29 139 27
39 -2 57 -7 65 -19z m1085 -209 c45 -16 41 -43 -9 -63 -71 -28 -160 -15 -160
23 0 10 30 37 50 44 26 9 86 7 119 -4z m-1169 -27 l23 -19 -21 -21 c-27 -27
-93 -29 -152 -6 -49 20 -43 31 27 50 67 18 97 17 123 -4z m806 -300 c26 -17
35 -51 22 -79 -22 -45 -62 -67 -131 -70 -88 -5 -99 5 -66 64 14 27 41 58 59
71 32 22 93 29 116 14z m-576 -22 c33 -17 58 -42 84 -88 10 -18 -68 -52 -121
-52 -30 0 -50 7 -73 26 -27 23 -31 32 -28 68 2 32 8 43 28 53 35 18 65 16 110
-7z m321 -118 l27 -11 -20 -68 c-37 -128 -33 -438 8 -670 l6 -33 -92 0 -93 0
7 48 c3 26 9 146 12 267 7 231 1 299 -35 411 -15 44 -17 61 -8 67 16 11 156 3
188 -11z m381 -819 c25 -23 23 -68 -4 -87 -19 -14 -77 -16 -428 -16 -351 0
-409 2 -428 16 -26 18 -29 60 -5 86 15 17 42 18 431 18 373 0 417 -2 434 -17z
m61 -151 c25 -22 22 -68 -7 -87 -20 -14 -82 -15 -494 -13 -297 2 -475 7 -481
13 -18 19 -22 60 -8 79 7 10 31 22 53 25 21 4 237 5 479 3 380 -4 442 -6 458
-20z m-77 -146 c23 -31 18 -73 -11 -92 -23 -15 -64 -16 -418 -11 -386 6 -392
7 -409 28 -10 12 -18 26 -18 33 1 20 28 47 57 56 15 5 198 8 406 7 362 -2 379
-3 393 -21z"/>
<path d="M1093 2963 c-39 -14 18 -67 129 -124 68 -35 108 -38 108 -9 0 37
-196 147 -237 133z"/>
<path d="M3658 2945 c-72 -26 -168 -93 -168 -116 0 -28 19 -24 128 31 102 51
129 71 117 90 -8 13 -31 12 -77 -5z"/>
<path d="M915 2450 c-4 -6 -3 -15 1 -20 30 -29 264 -64 277 -43 10 17 -13 30
-81 48 -90 23 -187 31 -197 15z"/>
<path d="M3730 2441 c-101 -21 -122 -30 -117 -45 3 -7 33 -10 88 -9 95 1 194
29 194 53 0 22 -64 22 -165 1z"/>
<path d="M1006 1959 c-62 -9 -111 -33 -101 -49 8 -13 83 -13 165 0 80 13 120
28 120 46 0 16 -85 17 -184 3z"/>
<path d="M3626 1961 c-12 -18 58 -42 159 -54 92 -10 125 -7 125 13 0 21 -74
41 -175 47 -72 4 -104 2 -109 -6z"/>
<path d="M1240 1524 c-90 -48 -130 -79 -130 -101 0 -21 28 -15 100 23 69 36
150 98 150 115 0 19 -38 7 -120 -37z"/>
<path d="M3460 1556 c0 -29 185 -146 230 -146 58 0 -17 71 -137 130 -69 33
-93 37 -93 16z"/>
</g>
</svg>
