<?xml version="1.0" standalone="no"?>
<!DOCTYPE svg PUBLIC "-//W3C//DTD SVG 20010904//EN"
 "http://www.w3.org/TR/2001/REC-SVG-20010904/DTD/svg10.dtd">
<svg version="1.0" xmlns="http://www.w3.org/2000/svg"
 width="768.000000pt" height="768.000000pt" viewBox="0 0 768.000000 768.000000"
 preserveAspectRatio="xMidYMid meet">

<g transform="translate(0.000000,768.000000) scale(0.100000,-0.100000)"
fill="#000000" stroke="none">
<path d="M0 3840 l0 -3840 3840 0 3840 0 0 3840 0 3840 -3840 0 -3840 0 0
-3840z m5040 678 c0 -1345 -1 -1411 -17 -1392 -10 10 -43 48 -73 84 -30 36
-57 67 -60 70 -3 3 -53 61 -110 130 -58 69 -107 127 -111 130 -3 3 -38 43 -77
89 l-72 83 0 689 c0 545 -3 689 -12 689 -7 -1 -30 -23 -51 -49 -21 -27 -46
-58 -55 -68 -50 -56 -142 -164 -173 -203 -20 -25 -49 -58 -63 -74 -15 -15 -50
-56 -78 -90 -28 -33 -67 -79 -87 -101 -20 -22 -58 -67 -86 -100 -27 -33 -62
-73 -77 -90 -35 -38 -35 -56 1 -97 16 -18 40 -46 54 -63 14 -16 58 -69 99
-116 40 -47 105 -123 143 -169 39 -46 81 -95 94 -109 13 -14 40 -46 59 -71 20
-25 64 -76 98 -115 33 -38 83 -97 109 -130 27 -33 52 -63 57 -66 4 -3 41 -46
80 -96 40 -50 129 -155 198 -234 69 -79 132 -153 140 -165 8 -12 45 -54 81
-95 37 -41 93 -105 125 -144 33 -38 68 -79 79 -90 11 -11 45 -50 74 -87 30
-37 58 -65 62 -62 5 3 9 556 9 1230 l0 1224 255 0 255 0 1 -1492 c0 -821 3
-1530 5 -1576 l4 -82 -324 0 -325 0 -56 67 c-32 38 -67 79 -79 93 -11 14 -45
54 -75 90 -57 69 -162 192 -172 200 -3 3 -12 15 -21 28 -8 12 -30 39 -49 60
-19 20 -54 62 -79 92 -25 30 -47 57 -50 60 -3 3 -48 57 -100 120 -52 63 -100
120 -106 125 -6 6 -41 48 -78 94 -38 46 -83 100 -101 120 -18 20 -50 57 -72
83 -58 71 -346 412 -353 418 -3 3 -37 43 -75 90 -38 47 -85 103 -105 125 -19
22 -55 64 -80 94 -91 110 -162 191 -166 191 -2 0 -27 -28 -55 -62 -28 -35 -73
-88 -100 -118 -69 -79 -164 -192 -244 -290 -38 -47 -71 -87 -74 -90 -3 -3 -28
-32 -56 -65 -27 -33 -54 -65 -60 -71 -5 -7 -41 -52 -80 -102 -38 -50 -73 -91
-77 -91 -5 -1 -8 178 -8 397 l0 399 48 55 c90 105 130 153 173 208 24 30 48
60 54 65 11 9 95 110 124 147 11 15 6 26 -44 85 -31 37 -64 77 -74 88 -132
159 -168 202 -179 214 -7 8 -39 46 -70 85 -31 39 -66 80 -77 91 -11 11 -40 45
-64 75 -25 30 -58 69 -74 85 -17 17 -42 48 -56 69 l-26 40 -5 -1675 -5 -1674
-265 0 -265 0 -3 295 c-2 162 0 1106 4 2098 l6 1802 257 0 256 -1 77 -97 c42
-53 92 -115 110 -136 147 -175 264 -313 274 -321 6 -5 40 -46 75 -90 35 -44
82 -101 104 -126 22 -25 69 -82 105 -125 36 -43 70 -83 76 -89 6 -5 30 -35 54
-65 24 -30 51 -62 60 -71 17 -18 91 -106 103 -123 5 -7 11 -6 17 6 6 9 16 23
23 30 18 17 295 342 345 403 12 14 134 157 147 171 5 7 28 33 50 59 22 26 49
57 60 70 11 12 27 31 35 41 44 55 161 193 186 219 15 17 57 66 93 110 36 44
79 95 95 113 l30 32 253 0 253 0 0 -1412z"/>
</g>
</svg>
